<svg xmlns="http://www.w3.org/2000/svg" version="1.1" xmlns:xlink="http://www.w3.org/1999/xlink" xmlns:svgjs="http://svgjs.com/svgjs" width="500" height="500"><svg xmlns="http://www.w3.org/2000/svg" xmlns:xlink="http://www.w3.org/1999/xlink" width="500" zoomAndPan="magnify" viewBox="0 0 375 374.999991" height="500" preserveAspectRatio="xMidYMid meet" version="1.0"><defs><clipPath id="SvgjsClipPath1005"><path d="M 45 24.328125 L 330 24.328125 L 330 54 L 45 54 Z M 45 24.328125 " clip-rule="nonzero"></path></clipPath><clipPath id="SvgjsClipPath1004"><path d="M 13.847656 56 L 116 56 L 116 181 L 13.847656 181 Z M 13.847656 56 " clip-rule="nonzero"></path></clipPath><clipPath id="SvgjsClipPath1003"><path d="M 258 56 L 361.097656 56 L 361.097656 181 L 258 181 Z M 258 56 " clip-rule="nonzero"></path></clipPath><clipPath id="SvgjsClipPath1002"><path d="M 13.847656 161 L 361.097656 161 L 361.097656 350.578125 L 13.847656 350.578125 Z M 13.847656 161 " clip-rule="nonzero"></path></clipPath><clipPath id="SvgjsClipPath1001"><path d="M 77 204 L 171 204 L 171 350.578125 L 77 350.578125 Z M 77 204 " clip-rule="nonzero"></path></clipPath><clipPath id="SvgjsClipPath1000"><path d="M 204 310 L 298 310 L 298 350.578125 L 204 350.578125 Z M 204 310 " clip-rule="nonzero"></path></clipPath></defs><path stroke-linecap="butt" transform="matrix(0.75, 0.00000000000000006, -0.00000000000000006, 0.75, 53.272311, 159.749961)" fill="none" stroke-linejoin="miter" d="M 0.00150146 2.000053 L 357.939025 2.000053 " stroke="#ffffff" stroke-width="4" stroke-opacity="1" stroke-miterlimit="4"></path><g clip-path="url(#ef7f00da34)"><path fill="#000000" d="M 60.464844 53.632812 C 53.683594 53.632812 47.519531 48.917969 46.046875 42.398438 C 44.203125 35.296875 48.390625 27.609375 55.421875 25.222656 C 55.488281 25.199219 55.558594 25.179688 55.621094 25.164062 C 58.613281 24.328125 61.609375 24.363281 64.253906 24.390625 C 65.101562 24.402344 65.945312 24.410156 66.78125 24.390625 C 104.246094 24.433594 141.613281 24.421875 178.984375 24.410156 C 223.480469 24.402344 269.484375 24.386719 314.738281 24.464844 C 318.777344 24.347656 322.71875 26.101562 325.566406 29.304688 C 328.449219 32.539062 329.761719 36.710938 329.171875 40.765625 C 328.792969 44.417969 326.945312 47.765625 323.957031 50.207031 C 320.921875 52.683594 317.039062 53.90625 313.265625 53.566406 C 277.328125 53.570312 241.398438 53.570312 205.460938 53.570312 C 157.519531 53.566406 109.582031 53.566406 61.640625 53.582031 C 61.246094 53.609375 60.859375 53.632812 60.464844 53.632812 Z M 57.875 32.789062 C 54.867188 33.867188 52.945312 37.410156 53.75 40.433594 C 53.765625 40.492188 53.78125 40.546875 53.796875 40.605469 C 54.460938 43.648438 57.800781 45.960938 61.09375 45.648438 C 61.21875 45.636719 61.339844 45.628906 61.464844 45.628906 C 109.464844 45.613281 157.464844 45.617188 205.460938 45.617188 C 241.457031 45.617188 277.457031 45.625 313.453125 45.613281 C 313.59375 45.613281 313.734375 45.617188 313.875 45.636719 C 315.617188 45.824219 317.460938 45.246094 318.925781 44.046875 C 320.285156 42.9375 321.113281 41.464844 321.265625 39.898438 C 321.269531 39.824219 321.28125 39.75 321.292969 39.675781 C 321.558594 37.964844 320.933594 36.066406 319.628906 34.597656 C 318.34375 33.152344 316.621094 32.351562 314.941406 32.417969 C 314.890625 32.417969 314.851562 32.425781 314.785156 32.425781 C 269.519531 32.34375 223.492188 32.355469 178.980469 32.371094 C 141.609375 32.378906 104.234375 32.390625 66.867188 32.34375 C 66.035156 32.363281 65.09375 32.355469 64.15625 32.34375 C 61.886719 32.308594 59.742188 32.285156 57.875 32.789062 Z M 57.875 32.789062 " fill-opacity="1" fill-rule="nonzero"></path></g><g clip-path="url(#b901bddda9)"><path fill="#000000" d="M 46.175781 180.726562 C 43.664062 180.726562 41.152344 180.546875 38.671875 180.175781 C 27.378906 178.121094 17.996094 169.382812 14.046875 157.339844 C 13.914062 156.941406 13.84375 156.523438 13.84375 156.101562 L 13.84375 148.390625 C 13.84375 147.804688 13.976562 147.222656 14.222656 146.695312 C 21.136719 132.023438 27.800781 116.902344 34.246094 102.28125 C 40.589844 87.886719 47.152344 72.996094 53.972656 58.496094 C 54.625 57.105469 56.027344 56.214844 57.566406 56.214844 C 69.625 56.203125 81.6875 56.210938 93.753906 56.210938 L 111.855469 56.214844 C 113.050781 56.214844 114.1875 56.757812 114.941406 57.683594 C 115.695312 58.613281 115.988281 59.839844 115.738281 61.011719 C 112.273438 77.351562 108.554688 93.914062 104.964844 109.9375 C 101.792969 124.066406 98.515625 138.675781 95.421875 153.0625 C 95.398438 153.175781 95.367188 153.285156 95.332031 153.394531 C 95.21875 153.761719 95.132812 154.148438 95.042969 154.539062 C 94.609375 156.40625 93.957031 159.214844 91.308594 161.035156 C 88.890625 162.878906 86.390625 164.628906 83.972656 166.324219 C 82.300781 167.496094 80.636719 168.664062 78.992188 169.867188 C 69.324219 176.929688 57.691406 180.726562 46.175781 180.726562 Z M 46.175781 180.726562 " fill-opacity="1" fill-rule="nonzero"></path></g><path fill="#000000" d="M 140.261719 180.871094 C 134.160156 180.871094 128.085938 179.777344 122.488281 177.574219 C 116.339844 175.171875 111.941406 170.859375 107.6875 166.683594 C 104.964844 164.011719 102.390625 161.492188 99.476562 159.570312 C 98.121094 158.675781 97.449219 157.050781 97.765625 155.460938 C 101.46875 137.191406 105.640625 118.714844 109.675781 100.851562 C 112.734375 87.3125 115.894531 73.316406 118.820312 59.53125 C 119.207031 57.71875 120.785156 56.414062 122.636719 56.378906 C 136.476562 56.128906 150.535156 56.175781 164.132812 56.222656 C 170.132812 56.242188 176.136719 56.265625 182.132812 56.257812 C 182.132812 56.257812 182.132812 56.257812 182.136719 56.257812 C 183.195312 56.257812 184.207031 56.679688 184.949219 57.425781 C 185.699219 58.171875 186.113281 59.1875 186.113281 60.242188 C 186.078125 71.617188 186.121094 83.191406 186.160156 94.382812 C 186.234375 114.761719 186.3125 135.835938 185.941406 156.570312 C 185.917969 158.054688 185.070312 159.394531 183.746094 160.058594 C 180.300781 161.78125 177.335938 164.425781 174.191406 167.21875 C 170.613281 170.402344 166.910156 173.699219 162.179688 175.910156 C 155.375 179.203125 147.796875 180.871094 140.261719 180.871094 Z M 140.261719 180.871094 " fill-opacity="1" fill-rule="nonzero"></path><path fill="#000000" d="M 234.820312 180.863281 C 228.082031 180.863281 221.175781 179.523438 214.695312 176.832031 C 209.171875 174.648438 204.949219 170.898438 200.863281 167.273438 C 197.6875 164.457031 194.6875 161.792969 191.222656 159.992188 C 189.925781 159.320312 189.105469 157.992188 189.078125 156.53125 C 188.703125 134.347656 188.75 111.796875 188.800781 89.992188 C 188.820312 80.074219 188.84375 70.15625 188.824219 60.242188 C 188.824219 59.1875 189.242188 58.171875 189.988281 57.425781 C 190.730469 56.683594 191.742188 56.257812 192.800781 56.257812 C 192.800781 56.257812 192.804688 56.257812 192.804688 56.257812 C 199.039062 56.269531 205.265625 56.242188 211.5 56.222656 C 224.867188 56.179688 238.679688 56.128906 252.289062 56.394531 C 254.140625 56.429688 255.714844 57.734375 256.097656 59.539062 C 259.105469 73.695312 262.332031 88.070312 265.449219 101.96875 C 269.375 119.464844 273.433594 137.558594 277.109375 155.433594 C 277.4375 157.035156 276.753906 158.671875 275.390625 159.5625 C 272.519531 161.4375 270.019531 163.933594 267.363281 166.570312 C 263.578125 170.339844 259.664062 174.234375 254.304688 176.671875 C 248.410156 179.464844 241.703125 180.863281 234.820312 180.863281 Z M 234.820312 180.863281 " fill-opacity="1" fill-rule="nonzero"></path><g clip-path="url(#640406642d)"><path fill="#000000" d="M 329.089844 180.769531 C 325.648438 180.769531 321.960938 180.375 318.042969 179.582031 C 304.105469 177.144531 292.695312 167.984375 282.628906 159.902344 L 282.121094 159.492188 C 281.433594 158.941406 280.949219 158.175781 280.746094 157.320312 C 276.070312 137.820312 271.6875 117.914062 267.445312 98.660156 C 264.738281 86.371094 261.9375 73.660156 259.089844 61.195312 C 258.820312 60.023438 259.101562 58.796875 259.839844 57.855469 C 260.582031 56.910156 261.710938 56.355469 262.90625 56.332031 C 275.9375 56.144531 289.171875 56.179688 301.972656 56.214844 C 307.097656 56.230469 312.21875 56.238281 317.339844 56.238281 C 318.886719 56.238281 320.285156 57.132812 320.941406 58.53125 C 327.5625 72.703125 333.972656 87.238281 340.171875 101.292969 C 346.777344 116.273438 353.605469 131.765625 360.691406 146.800781 C 360.941406 147.328125 361.070312 147.90625 361.070312 148.496094 L 361.070312 156.21875 C 361.070312 156.730469 360.972656 157.242188 360.777344 157.714844 C 358.269531 163.890625 354.421875 171.535156 346.921875 175.910156 C 342.039062 179.148438 336.066406 180.769531 329.089844 180.769531 Z M 329.089844 180.769531 " fill-opacity="1" fill-rule="nonzero"></path></g><g clip-path="url(#db4532f9c1)"><path fill="#000000" d="M 24.78125 350.457031 C 21.457031 350.457031 18.195312 349.1875 15.273438 346.742188 C 14.367188 345.988281 13.851562 344.871094 13.851562 343.695312 L 13.851562 338.394531 C 13.851562 337.160156 14.425781 335.996094 15.40625 335.246094 C 20.652344 331.214844 26.730469 331.539062 32.09375 331.824219 C 33.09375 331.878906 34.074219 331.929688 35.015625 331.953125 C 35.082031 309.269531 35.066406 286.28125 35.054688 264.011719 C 35.039062 238.855469 35.023438 212.847656 35.125 187.261719 C 35.128906 186.164062 35.582031 185.117188 36.386719 184.371094 C 37.191406 183.621094 38.261719 183.234375 39.359375 183.308594 C 53.136719 184.195312 66.367188 181.140625 76.613281 174.6875 C 76.640625 174.667969 76.675781 174.648438 76.707031 174.628906 C 79.066406 173.230469 81.285156 171.554688 83.628906 169.785156 C 87.289062 167.019531 91.074219 164.160156 95.636719 162.246094 C 97.019531 161.667969 98.605469 161.914062 99.746094 162.878906 C 101.902344 164.703125 103.894531 166.683594 105.824219 168.59375 C 109.28125 172.019531 112.542969 175.25 116.472656 177.460938 C 126.03125 183.253906 138.78125 184.898438 152.484375 182.167969 C 160.917969 180.484375 169.269531 175.765625 176.636719 168.523438 C 176.714844 168.445312 176.796875 168.371094 176.886719 168.300781 C 177.292969 167.960938 177.722656 167.570312 178.171875 167.167969 C 180.941406 164.667969 186.699219 159.46875 192.824219 164.023438 C 195.144531 165.773438 197.296875 167.660156 199.386719 169.488281 C 203.644531 173.210938 207.664062 176.726562 212.507812 178.78125 C 227.03125 185.242188 244 185.078125 256.867188 178.371094 C 261.609375 176 265.40625 172.265625 269.429688 168.308594 C 271.257812 166.511719 273.148438 164.648438 275.15625 162.90625 C 276.296875 161.914062 277.902344 161.652344 279.296875 162.238281 C 283.582031 164.027344 287.128906 166.703125 290.558594 169.292969 C 291.613281 170.085938 292.660156 170.878906 293.726562 171.640625 C 305.132812 180.277344 319.957031 184.394531 335.566406 183.3125 C 336.664062 183.238281 337.742188 183.617188 338.550781 184.367188 C 339.355469 185.113281 339.816406 186.160156 339.820312 187.261719 C 339.929688 212.359375 339.910156 237.871094 339.890625 262.542969 C 339.875 285.300781 339.855469 308.792969 339.941406 331.964844 C 340.921875 331.9375 341.945312 331.882812 342.996094 331.824219 C 348.421875 331.515625 354.566406 331.164062 359.699219 335.539062 C 360.585938 336.296875 361.09375 337.398438 361.09375 338.566406 L 361.09375 343.867188 C 361.09375 345.292969 360.332031 346.609375 359.089844 347.316406 C 358.773438 347.5 358.453125 347.691406 358.132812 347.882812 C 356.257812 349.027344 353.710938 350.582031 350.4375 350.382812 L 344.246094 350.390625 C 331.09375 350.417969 317.488281 350.441406 304.113281 350.34375 C 301.960938 350.328125 300.210938 348.597656 300.167969 346.445312 C 300.058594 340.660156 300.09375 334.800781 300.132812 329.136719 C 300.179688 322.664062 300.21875 315.96875 300.039062 309.429688 C 300.035156 309.28125 300.039062 309.132812 300.054688 308.980469 C 300.074219 308.738281 300.035156 308.628906 299.875 308.472656 C 299.546875 308.152344 298.808594 307.878906 298.042969 307.972656 C 297.878906 307.996094 297.699219 307.980469 297.550781 308.003906 C 283.039062 307.980469 268.523438 307.984375 254.003906 307.988281 C 237.980469 307.996094 221.953125 308 205.933594 307.964844 C 205.878906 307.964844 205.824219 307.964844 205.765625 307.960938 C 203.691406 307.863281 202.632812 308.21875 202.308594 308.414062 C 201.914062 315.46875 201.988281 322.675781 202.054688 329.640625 C 202.109375 335.148438 202.164062 340.84375 202 346.484375 C 201.941406 348.601562 200.226562 350.296875 198.109375 350.34375 C 191.917969 350.472656 185.363281 350.472656 176.871094 350.34375 C 174.703125 350.3125 172.960938 348.546875 172.957031 346.378906 C 172.859375 313.191406 172.882812 279.457031 172.902344 246.839844 C 172.910156 233.175781 172.914062 219.519531 172.914062 205.855469 L 172.90625 205.570312 C 172.886719 204.6875 172.847656 202.914062 172.546875 202.289062 C 170.378906 201.863281 168.015625 201.902344 165.519531 201.941406 C 164.417969 201.960938 163.316406 201.980469 162.21875 201.960938 C 137.476562 202.023438 112.242188 201.996094 87.84375 201.972656 L 78.707031 201.960938 L 78.542969 201.96875 C 77.628906 201.988281 75.785156 202.015625 75.160156 202.339844 C 74.671875 205.003906 74.726562 207.851562 74.792969 210.851562 C 74.820312 212.308594 74.851562 213.8125 74.816406 215.328125 C 74.816406 227.988281 74.828125 240.738281 74.832031 253.484375 C 74.851562 283.929688 74.871094 315.410156 74.777344 346.378906 C 74.773438 348.550781 73.015625 350.324219 70.835938 350.34375 C 62.335938 350.421875 53.703125 350.414062 45.359375 350.402344 C 38.871094 350.390625 32.382812 350.386719 25.894531 350.421875 C 25.511719 350.441406 25.144531 350.457031 24.78125 350.457031 Z M 21.800781 341.648438 C 22.792969 342.203125 23.988281 342.613281 25.289062 342.484375 C 25.414062 342.472656 25.539062 342.464844 25.660156 342.464844 C 32.222656 342.429688 38.785156 342.4375 45.347656 342.445312 C 52.390625 342.453125 59.632812 342.464844 66.816406 342.414062 C 66.898438 312.726562 66.882812 282.628906 66.863281 253.480469 C 66.851562 240.730469 66.847656 227.980469 66.847656 215.230469 C 66.878906 213.792969 66.851562 212.4375 66.824219 211.003906 C 66.753906 207.550781 66.679688 203.980469 67.429688 200.328125 C 67.457031 200.203125 67.492188 200.078125 67.527344 199.957031 C 69.3125 194.179688 75.433594 194.0625 78.371094 194.007812 L 78.613281 194.003906 L 87.828125 194.015625 C 112.222656 194.039062 137.449219 194.0625 162.253906 194.003906 C 163.335938 194.023438 164.347656 194.003906 165.359375 193.988281 C 168.347656 193.9375 171.429688 193.882812 174.625 194.605469 C 174.730469 194.632812 174.832031 194.65625 174.929688 194.6875 C 180.628906 196.457031 180.765625 202.492188 180.832031 205.386719 L 180.839844 205.75 C 180.839844 219.511719 180.835938 233.175781 180.824219 246.839844 C 180.804688 278.171875 180.789062 310.53125 180.871094 342.4375 C 185.828125 342.496094 190.105469 342.5 194.105469 342.449219 C 194.160156 338.191406 194.121094 333.898438 194.074219 329.714844 C 194.007812 322.59375 193.929688 315.230469 194.335938 307.941406 C 194.464844 305.933594 195.691406 299.585938 206 300.011719 C 221.988281 300.046875 237.980469 300.042969 253.96875 300.035156 C 268.417969 300.03125 282.871094 300.027344 297.316406 300.050781 C 300.308594 299.765625 303.296875 300.757812 305.355469 302.742188 C 307.1875 304.503906 308.105469 306.859375 307.960938 309.394531 C 308.136719 316.011719 308.09375 322.707031 308.054688 329.1875 C 308.023438 333.527344 307.992188 337.988281 308.035156 342.414062 C 320.113281 342.484375 332.335938 342.464844 344.195312 342.441406 L 350.527344 342.429688 C 350.636719 342.417969 350.742188 342.433594 350.851562 342.441406 C 351.445312 342.496094 352.238281 342.105469 353.105469 341.601562 L 353.105469 340.65625 C 350.53125 339.347656 347.1875 339.542969 343.410156 339.75 C 340.808594 339.902344 338.117188 340.050781 335.425781 339.703125 C 333.453125 339.441406 331.976562 337.765625 331.964844 335.777344 C 331.867188 311.359375 331.886719 286.539062 331.90625 262.53125 C 331.921875 239.21875 331.941406 215.15625 331.851562 191.417969 C 315.882812 191.65625 300.792969 186.976562 288.988281 178.039062 C 287.957031 177.300781 286.84375 176.46875 285.738281 175.628906 C 283.277344 173.769531 280.925781 171.996094 278.425781 170.636719 C 277.285156 171.707031 276.152344 172.824219 274.980469 173.972656 C 270.695312 178.1875 266.269531 182.546875 260.457031 185.449219 C 245.550781 193.214844 225.933594 193.464844 209.3125 186.066406 C 203.367188 183.542969 198.667969 179.4375 194.125 175.464844 C 192.050781 173.648438 190.089844 171.941406 188.027344 170.378906 C 187.367188 169.890625 186.296875 170.515625 183.472656 173.066406 C 182.988281 173.503906 182.519531 173.929688 182.070312 174.304688 C 173.625 182.570312 163.925781 187.984375 154.015625 189.964844 C 138.355469 193.089844 123.589844 191.085938 112.4375 184.324219 C 107.6875 181.652344 103.878906 177.886719 100.207031 174.242188 C 98.9375 172.992188 97.722656 171.78125 96.480469 170.632812 C 93.707031 172.121094 91.113281 174.078125 88.402344 176.128906 C 85.992188 177.949219 83.503906 179.828125 80.777344 181.445312 C 70.039062 188.195312 57.078125 191.589844 43.039062 191.40625 C 42.960938 215.644531 42.972656 240.207031 42.984375 264 C 43 287.53125 43.007812 311.863281 42.933594 335.796875 C 42.929688 337.8125 41.414062 339.507812 39.410156 339.738281 C 36.796875 340.03125 34.183594 339.898438 31.652344 339.761719 C 27.855469 339.5625 24.488281 339.382812 21.785156 340.621094 L 21.785156 341.648438 Z M 309.019531 297.445312 C 308.652344 297.445312 308.285156 297.421875 307.914062 297.382812 C 292.8125 297.378906 277.710938 297.382812 262.605469 297.382812 C 239.8125 297.390625 217.019531 297.394531 194.234375 297.367188 C 191.269531 297.671875 188.28125 296.691406 186.195312 294.707031 C 184.332031 292.929688 183.398438 290.566406 183.554688 288.019531 C 183.464844 273.285156 183.476562 258.316406 183.492188 243.839844 C 183.503906 231.402344 183.519531 218.535156 183.464844 205.890625 C 183.398438 203.738281 183.199219 196.882812 189.171875 194.71875 C 189.324219 194.660156 189.472656 194.617188 189.628906 194.582031 C 192.691406 193.875 195.636719 193.933594 198.484375 194 C 199.6875 194.023438 200.816406 194.046875 201.921875 194.019531 L 217.324219 194.023438 C 247.152344 194.035156 276.976562 194.046875 306.800781 194.003906 C 306.871094 194.007812 306.953125 194.003906 307.027344 194.007812 C 307.359375 194.027344 307.703125 194.035156 308.054688 194.039062 C 310.21875 194.082031 313.484375 194.148438 315.984375 196.675781 C 318.527344 199.148438 318.601562 202.40625 318.652344 204.570312 C 318.660156 204.929688 318.667969 205.289062 318.6875 205.632812 C 318.691406 205.722656 318.695312 205.804688 318.691406 205.890625 C 318.636719 218.542969 318.652344 231.40625 318.660156 243.839844 C 318.675781 258.320312 318.691406 273.289062 318.601562 288.023438 C 318.75 290.59375 317.792969 292.976562 315.894531 294.765625 C 314.0625 296.492188 311.570312 297.445312 309.019531 297.445312 Z M 290.734375 289.429688 C 296.542969 289.429688 302.347656 289.429688 308.160156 289.4375 C 308.34375 289.4375 308.527344 289.449219 308.710938 289.476562 C 309.320312 289.558594 310.046875 289.351562 310.441406 288.976562 C 310.660156 288.765625 310.671875 288.628906 310.65625 288.464844 C 310.648438 288.355469 310.640625 288.238281 310.648438 288.125 C 310.742188 273.371094 310.726562 258.367188 310.710938 243.851562 C 310.703125 231.441406 310.6875 218.609375 310.742188 205.980469 C 310.722656 205.582031 310.710938 205.167969 310.703125 204.75 C 310.6875 204.066406 310.65625 202.648438 310.441406 202.378906 C 310.402344 202.347656 310.363281 202.304688 310.328125 202.265625 C 310.097656 202.03125 308.613281 202 307.894531 201.988281 C 307.492188 201.976562 307.097656 201.972656 306.707031 201.953125 C 276.910156 201.996094 247.117188 201.980469 217.320312 201.972656 L 202.039062 201.96875 C 200.847656 202.007812 199.554688 201.976562 198.304688 201.945312 C 195.984375 201.890625 193.792969 201.847656 191.800781 202.246094 C 191.6875 202.402344 191.339844 203.105469 191.414062 205.757812 C 191.46875 218.527344 191.457031 231.402344 191.441406 243.851562 C 191.425781 258.363281 191.414062 273.371094 191.507812 288.125 C 191.507812 288.238281 191.503906 288.359375 191.492188 288.472656 C 191.476562 288.664062 191.496094 288.777344 191.683594 288.945312 C 192.027344 289.269531 192.753906 289.550781 193.492188 289.449219 C 193.667969 289.425781 193.832031 289.367188 194.015625 289.414062 C 216.871094 289.441406 239.742188 289.4375 262.605469 289.429688 C 271.984375 289.4375 281.359375 289.429688 290.734375 289.429688 Z M 290.734375 289.429688 " fill-opacity="1" fill-rule="nonzero"></path></g><g clip-path="url(#a00116a9d8)"><path fill="#000000" d="M 127.039062 350.398438 C 113.078125 350.398438 98.054688 350.386719 81.472656 350.363281 C 79.285156 350.359375 77.507812 348.582031 77.503906 346.394531 C 77.429688 304.257812 77.429688 259.199219 77.503906 208.636719 C 77.507812 206.449219 79.28125 204.675781 81.46875 204.667969 C 109.601562 204.589844 138.125 204.589844 166.242188 204.667969 C 168.433594 204.675781 170.207031 206.449219 170.207031 208.644531 C 170.253906 262.34375 170.253906 306.121094 170.207031 346.394531 C 170.203125 348.582031 168.433594 350.363281 166.238281 350.363281 C 153.90625 350.386719 141.003906 350.398438 127.039062 350.398438 Z M 85.449219 342.414062 C 115.058594 342.453125 139.675781 342.453125 162.257812 342.414062 C 162.296875 304.234375 162.296875 262.757812 162.257812 212.601562 C 136.761719 212.539062 110.957031 212.539062 85.449219 212.601562 C 85.382812 259.980469 85.382812 302.539062 85.449219 342.414062 Z M 85.449219 342.414062 " fill-opacity="1" fill-rule="nonzero"></path></g><path fill="#000000" d="M 253.941406 286.796875 C 234.90625 286.796875 216.183594 286.777344 198.105469 286.757812 C 195.914062 286.753906 194.140625 284.984375 194.136719 282.792969 C 194.054688 257.445312 194.085938 232.253906 194.121094 208.625 C 194.125 206.433594 195.902344 204.660156 198.089844 204.65625 C 239.546875 204.609375 273.21875 204.609375 304.058594 204.65625 C 306.25 204.660156 308.023438 206.429688 308.027344 208.617188 C 308.09375 233.222656 308.09375 258.171875 308.027344 282.777344 C 308.023438 284.96875 306.25 286.738281 304.0625 286.742188 C 287.253906 286.78125 270.476562 286.796875 253.941406 286.796875 Z M 253.941406 286.796875 " fill-opacity="1" fill-rule="nonzero"></path><g clip-path="url(#e912702f40)"><path fill="#000000" d="M 249.167969 350.402344 C 235.109375 350.402344 221.683594 350.382812 208.699219 350.347656 C 206.519531 350.34375 204.746094 348.582031 204.734375 346.402344 C 204.652344 335.859375 204.652344 325.167969 204.734375 314.621094 C 204.746094 312.441406 206.519531 310.683594 208.699219 310.675781 C 239.761719 310.601562 267.484375 310.601562 293.457031 310.675781 C 295.632812 310.683594 297.402344 312.4375 297.421875 314.609375 C 297.527344 325.21875 297.476562 335.980469 297.421875 346.394531 C 297.410156 348.578125 295.640625 350.34375 293.457031 350.347656 C 277.925781 350.386719 263.226562 350.402344 249.167969 350.402344 Z M 212.65625 342.410156 C 236.367188 342.46875 261.585938 342.46875 289.492188 342.410156 C 289.53125 334.5625 289.558594 326.554688 289.507812 318.613281 C 265.792969 318.554688 240.574219 318.554688 212.664062 318.613281 C 212.613281 326.527344 212.613281 334.5 212.65625 342.410156 Z M 212.65625 342.410156 " fill-opacity="1" fill-rule="nonzero"></path></g></svg><style>@media (prefers-color-scheme: light) { :root { filter: none; } }
@media (prefers-color-scheme: dark) { :root { filter: invert(100%); } }
</style></svg>