<?xml version="1.0" standalone="no"?>
<!DOCTYPE svg PUBLIC "-//W3C//DTD SVG 20010904//EN"
 "http://www.w3.org/TR/2001/REC-SVG-20010904/DTD/svg10.dtd">
<svg version="1.0" xmlns="http://www.w3.org/2000/svg"
 width="700.000000pt" height="700.000000pt" viewBox="0 0 700.000000 700.000000"
 preserveAspectRatio="xMidYMid meet">
<metadata>
Created by potrace 1.14, written by Peter Selinger 2001-2017
</metadata>
<g transform="translate(0.000000,700.000000) scale(0.100000,-0.100000)"
fill="#000000" stroke="none">
<path d="M1082 6538 c-90 -13 -158 -62 -197 -142 -56 -115 -40 -223 48 -311
95 -94 -172 -85 2582 -83 l2430 3 45 23 c93 48 146 125 154 223 10 123 -74
248 -188 281 -47 13 -4782 19 -4874 6z m4860 -163 c75 -56 69 -168 -11 -210
-26 -13 -308 -15 -2431 -15 -1785 0 -2406 3 -2423 11 -44 23 -66 52 -73 95
-10 69 35 127 106 136 14 2 1101 3 2415 3 2373 0 2390 0 2417 -20z"/>
<path d="M1037 5939 c-14 -8 -147 -266 -147 -285 0 -2 -14 -34 -31 -71 -17
-38 -120 -268 -229 -513 -214 -481 -266 -597 -329 -734 -40 -84 -42 -94 -42
-181 0 -77 4 -102 26 -151 88 -200 264 -342 456 -369 76 -11 238 -4 324 14
170 35 288 94 516 254 79 56 99 63 159 58 8 -1 -5 -13 -30 -28 -25 -15 -94
-62 -154 -106 -161 -117 -271 -173 -421 -212 -111 -29 -229 -42 -343 -38 -73
2 -84 0 -109 -21 l-28 -24 -1 -1354 c-1 -744 -2 -1358 -3 -1363 -1 -7 -40 -10
-103 -8 -122 2 -208 -20 -257 -66 -31 -29 -32 -31 -29 -112 l3 -83 43 -33 c23
-18 59 -37 80 -43 23 -6 212 -10 500 -10 449 0 463 1 482 20 11 11 21 26 22
33 0 6 2 615 3 1353 1 737 5 1346 9 1352 11 18 1799 17 1814 0 6 -9 10 -473
10 -1363 l1 -1350 26 -23 c25 -21 32 -22 246 -22 l220 0 24 25 c23 22 25 32
25 112 0 48 1 214 2 368 l3 280 904 3 c555 1 909 -2 914 -7 6 -6 10 -160 10
-372 l0 -361 25 -25 24 -24 481 3 482 3 40 24 c78 47 85 58 85 130 0 90 -6
106 -48 134 -67 43 -124 56 -237 54 -58 -1 -106 0 -106 3 -1 3 -2 616 -3 1362
l-2 1358 -22 22 c-20 21 -33 23 -125 24 -99 1 -246 12 -258 19 -3 2 -21 7 -40
10 -108 19 -311 112 -409 187 -30 23 -98 71 -150 106 -52 36 -96 65 -97 66 -1
0 21 0 47 -1 44 -1 60 -9 152 -76 57 -41 119 -84 138 -95 134 -78 243 -123
351 -142 35 -7 75 -14 89 -17 40 -7 181 -7 233 1 152 22 299 113 385 239 18
25 48 79 67 119 32 66 35 80 35 162 l0 89 -76 166 c-42 91 -165 365 -274 610
-188 425 -303 680 -376 838 -18 39 -42 76 -53 82 -13 8 -190 11 -541 11 -574
0 -579 0 -581 -58 -2 -40 -5 -22 66 -342 31 -140 58 -262 60 -271 9 -47 178
-803 190 -849 8 -30 16 -68 19 -85 19 -100 76 -309 87 -316 15 -10 14 -10 -66
-11 -25 -1 -48 2 -52 6 -3 3 -1 6 5 6 17 0 30 61 20 95 -5 17 -22 93 -38 170
-45 216 -84 398 -145 665 -30 135 -57 254 -59 265 -2 11 -23 106 -46 210 -23
105 -44 199 -46 210 -13 72 -57 251 -65 266 -5 10 -18 23 -29 29 -27 15 -1141
14 -1173 -1 -14 -6 -29 -21 -34 -33 -6 -12 -9 -387 -8 -933 1 -871 2 -913 20
-933 18 -20 18 -20 -11 -21 -16 0 -44 -1 -62 -2 -32 -2 -44 7 -19 15 8 3 14
41 17 124 8 182 5 1726 -3 1750 -15 43 -30 44 -628 44 l-569 -1 -24 -22 c-24
-21 -33 -56 -111 -417 -2 -8 -22 -98 -45 -200 -23 -102 -43 -194 -45 -205 -3
-11 -30 -132 -61 -270 -31 -137 -58 -261 -60 -274 -3 -13 -20 -94 -39 -180
-19 -86 -37 -172 -40 -191 -3 -19 -10 -52 -16 -73 -8 -30 -7 -45 6 -69 8 -17
14 -32 13 -33 -2 -1 -27 1 -56 3 -45 3 -52 7 -46 21 20 47 34 93 48 161 9 41
56 257 106 480 50 223 92 414 94 425 2 11 13 60 25 108 12 49 23 103 26 120 3
18 12 59 20 92 17 73 45 201 51 234 3 12 12 53 20 90 28 121 29 149 3 177
l-22 24 -531 0 c-356 -1 -537 -4 -549 -11z m979 -2056 c139 -134 202 -176 317
-213 296 -96 622 -37 852 153 44 37 98 82 120 101 36 31 67 41 114 37 7 -1
-13 -21 -45 -45 -33 -24 -77 -61 -99 -82 -145 -137 -338 -230 -520 -250 -230
-26 -445 17 -603 119 -82 54 -287 248 -272 257 25 15 62 -6 136 -77z m1748
-17 c128 -108 185 -145 276 -179 228 -85 494 -81 693 12 90 42 142 80 260 193
69 66 81 74 109 70 l31 -5 -74 -71 c-148 -142 -195 -179 -274 -218 -210 -103
-445 -121 -679 -53 -159 46 -230 87 -376 215 -34 30 -86 72 -114 93 -28 22
-52 40 -53 41 -2 1 18 1 44 -1 42 -3 57 -13 157 -97z m-222 -73 c19 -16 80
-65 134 -111 146 -124 259 -180 438 -222 108 -25 164 -31 271 -31 286 0 504
87 705 282 31 30 68 65 82 78 l27 24 36 -22 c20 -12 71 -47 113 -80 234 -178
462 -265 732 -278 58 -3 107 -8 110 -10 2 -2 5 -613 5 -1356 1 -1029 4 -1357
13 -1374 18 -32 41 -36 209 -37 150 -1 185 -8 169 -35 -5 -8 -134 -11 -422
-11 l-414 0 0 327 c0 309 -1 329 -21 369 -15 33 -32 49 -72 68 l-51 26 -915 0
c-969 -1 -962 -1 -1013 -47 -51 -46 -52 -54 -53 -410 0 -326 0 -333 -20 -334
-65 -3 -218 1 -223 6 -4 3 -7 597 -7 1318 -1 1276 -2 1313 -21 1352 -24 50
-70 81 -131 89 -78 10 -1796 6 -1842 -5 -75 -17 -108 -52 -126 -134 -4 -16 -6
-613 -6 -1327 l0 -1298 -387 -1 c-443 -1 -432 -2 -451 16 -24 23 54 36 197 33
141 -3 178 6 188 49 4 13 7 629 7 1369 0 945 4 1347 11 1349 6 2 56 6 111 8
168 9 337 53 486 127 70 35 195 113 209 130 10 12 168 120 177 120 4 0 46 -37
93 -82 193 -184 320 -248 575 -293 41 -7 240 -7 295 0 238 31 418 114 601 277
103 91 123 108 135 108 6 0 26 -12 46 -27z"/>
<path d="M3535 3365 c-50 -17 -92 -66 -102 -119 -5 -22 -8 -407 -8 -855 1
-878 0 -847 51 -892 59 -52 -7 -49 1222 -47 l1138 3 36 25 c78 53 73 -15 76
920 l2 835 -22 45 c-27 52 -60 78 -114 91 -22 5 -503 8 -1139 8 -904 -1 -1107
-3 -1140 -14z m2259 -151 c3 -9 6 -375 6 -815 l0 -799 -27 -1 c-168 -5 -2185
0 -2191 5 -8 8 -12 1578 -4 1608 4 17 60 18 1107 18 996 0 1103 -2 1109 -16z"/>
<path d="M3649 3161 l-24 -19 -1 -714 c0 -392 3 -723 7 -735 18 -50 -6 -49
1068 -47 l1005 1 23 27 23 27 0 715 0 715 -25 24 -24 25 -1014 0 c-984 0
-1015 -1 -1038 -19z"/>
<path d="M1474 3156 l-28 -23 0 -1312 0 -1311 24 -25 23 -25 818 0 c789 0 818
1 840 19 l24 19 0 1322 0 1322 -24 19 c-22 18 -51 19 -837 19 l-813 0 -27 -24z
m1314 -126 l242 0 0 -1210 0 -1210 -717 2 -718 3 0 1205 0 1205 190 5 c105 3
318 4 475 3 157 -1 394 -3 528 -3z"/>
<path d="M4047 1200 c-183 -5 -189 -6 -208 -28 -17 -22 -19 -44 -18 -344 l0
-320 24 -24 24 -24 815 0 815 0 26 23 26 22 1 324 0 324 -24 24 -24 23 -634 3
c-349 1 -720 0 -823 -3z m1338 -149 c20 -1 20 -7 20 -218 l-1 -218 -717 -3
-717 -2 0 222 0 223 698 -2 c383 -1 706 -2 717 -2z"/>
</g>
</svg>
