<?xml version="1.0" standalone="no"?>
<!DOCTYPE svg PUBLIC "-//W3C//DTD SVG 20010904//EN"
 "http://www.w3.org/TR/2001/REC-SVG-20010904/DTD/svg10.dtd">
<svg version="1.0" xmlns="http://www.w3.org/2000/svg"
 width="700.000000pt" height="700.000000pt" viewBox="0 0 700.000000 700.000000"
 preserveAspectRatio="xMidYMid meet">
<metadata>
Created by potrace 1.14, written by Peter Selinger 2001-2017
</metadata>
<g transform="translate(0.000000,700.000000) scale(0.100000,-0.100000)"
fill="#000000" stroke="none">
<path d="M1027 6526 c-129 -47 -202 -195 -162 -331 13 -45 28 -69 68 -110 95
-94 -172 -85 2567 -85 2695 0 2466 -6 2553 71 117 103 123 282 13 392 -20 20
-51 45 -69 54 -30 17 -161 18 -2482 20 -2029 2 -2456 0 -2488 -11z m4910 -151
c32 -19 63 -68 63 -99 0 -35 -30 -86 -62 -106 -33 -20 -43 -20 -2436 -20
-1761 0 -2409 3 -2425 11 -64 33 -89 88 -67 153 13 40 51 72 95 79 17 3 1103
4 2415 3 2348 -1 2385 -1 2417 -21z"/>
<path d="M1036 5939 c-23 -14 -69 -111 -386 -824 -142 -319 -288 -645 -325
-725 l-67 -144 4 -101 c3 -94 6 -107 42 -181 76 -155 252 -296 405 -324 141
-26 352 -5 504 50 111 41 182 82 361 210 117 83 161 120 175 148 17 34 393
1698 407 1806 6 40 4 50 -16 71 l-23 25 -531 0 c-362 -1 -537 -4 -550 -11z"/>
<path d="M2246 5928 c-22 -20 -33 -57 -85 -298 -33 -151 -105 -475 -160 -720
-152 -678 -182 -827 -172 -853 5 -12 24 -33 42 -46 19 -14 84 -72 146 -129
115 -107 188 -163 251 -189 130 -55 300 -79 442 -63 231 26 371 93 568 271 29
27 82 67 117 90 35 23 68 51 72 63 4 11 7 432 7 934 l-2 913 -23 25 -22 24
-578 0 -578 0 -25 -22z"/>
<path d="M3551 5931 c-11 -11 -23 -37 -27 -58 -9 -47 2 -1802 11 -1825 4 -9
26 -28 48 -42 23 -13 105 -77 182 -141 89 -74 165 -129 210 -150 198 -95 458
-116 661 -54 123 38 196 84 344 218 76 69 150 136 164 148 19 15 26 31 26 55
0 37 -55 296 -240 1128 -66 300 -128 578 -137 619 -10 49 -24 83 -39 98 l-23
23 -581 0 c-561 0 -581 -1 -599 -19z"/>
<path d="M4864 5927 c-19 -16 -27 -33 -26 -53 1 -29 324 -1487 381 -1718 20
-82 35 -124 49 -135 305 -243 459 -329 667 -372 103 -21 276 -25 357 -8 179
38 318 155 409 343 36 75 39 86 39 170 l0 89 -76 166 c-42 91 -195 432 -339
756 -333 748 -339 761 -364 774 -13 8 -188 11 -545 11 l-525 0 -27 -23z"/>
<path d="M1738 3947 c-35 -18 -117 -73 -183 -121 -143 -105 -283 -175 -420
-212 -82 -21 -130 -27 -263 -31 -152 -5 -166 -7 -190 -28 l-27 -23 -3 -1364
-4 -1363 -111 0 c-128 0 -197 -18 -247 -65 -30 -28 -31 -30 -28 -111 l3 -83
43 -33 c23 -18 59 -37 80 -43 40 -11 938 -15 966 -4 41 16 41 -5 46 1404 l5
1355 900 3 c837 2 901 1 913 -15 9 -13 12 -302 12 -1364 l0 -1348 26 -20 c25
-20 39 -21 246 -21 l219 0 24 25 25 24 0 339 c0 187 3 354 6 371 l7 31 906 -2
906 -3 5 -373 5 -374 24 -19 c22 -18 45 -19 495 -19 l472 0 52 26 c77 38 92
62 92 148 0 40 -6 78 -13 86 -47 60 -159 94 -288 88 l-86 -4 -6 230 c-4 127
-7 743 -7 1368 l0 1137 -25 19 c-21 17 -46 20 -187 25 -132 4 -182 10 -263 31
-135 35 -294 116 -435 221 -135 100 -228 150 -260 140 -13 -4 -68 -50 -124
-102 -135 -127 -187 -168 -268 -209 -229 -115 -551 -115 -812 0 -72 32 -120
66 -236 166 -129 111 -174 140 -224 140 -56 0 -109 -29 -201 -111 -236 -209
-408 -279 -687 -279 -274 0 -424 63 -643 272 -104 99 -141 128 -164 128 -5 0
-38 -15 -73 -33z m1846 -188 c185 -163 267 -215 416 -267 255 -88 567 -82 791
16 130 57 170 84 322 225 56 51 90 75 100 71 8 -3 73 -48 144 -99 242 -178
458 -259 724 -272 l106 -6 6 -186 c4 -102 7 -715 7 -1362 0 -998 2 -1178 14
-1195 13 -17 31 -19 185 -24 120 -4 174 -9 183 -18 10 -10 10 -15 -2 -22 -9
-6 -185 -10 -422 -10 l-408 0 0 324 c0 206 -4 335 -11 353 -15 40 -48 73 -94
94 -38 18 -86 19 -955 18 -968 0 -961 0 -1012 -46 -50 -46 -52 -56 -56 -410
l-4 -333 -119 0 -119 0 0 1273 c0 702 -4 1300 -9 1334 -11 71 -37 115 -84 141
-30 16 -99 17 -972 17 -935 0 -940 0 -980 -21 -22 -12 -49 -36 -60 -55 -20
-33 -20 -54 -23 -1361 l-2 -1328 -415 0 c-287 0 -416 3 -421 11 -16 27 20 34
180 37 155 3 165 5 185 26 l21 22 2 1360 3 1359 110 7 c274 16 481 94 725 273
170 125 142 123 259 14 161 -150 285 -220 463 -265 87 -21 316 -29 419 -15
238 34 389 107 599 291 57 49 111 90 119 90 9 0 47 -27 85 -61z"/>
<path d="M3551 3370 c-46 -11 -81 -39 -105 -86 -21 -38 -21 -49 -19 -644 2
-333 3 -711 3 -841 0 -228 1 -237 23 -270 12 -19 42 -44 67 -56 l44 -23 1122
0 c768 0 1132 3 1151 11 42 15 92 68 103 109 14 51 13 1633 -1 1685 -14 50
-64 100 -114 114 -47 13 -2219 14 -2274 1z m2244 -955 l0 -810 -1110 0 -1110
0 -3 790 c-1 435 0 800 3 813 l5 22 1108 -2 1107 -3 0 -810z"/>
<path d="M3650 3160 c-11 -11 -22 -30 -25 -42 -3 -13 -4 -340 -3 -726 l3 -704
24 -19 c23 -18 54 -19 1041 -19 l1019 0 20 26 c21 26 21 34 21 741 l0 714 -25
24 -24 25 -1016 0 c-997 0 -1015 0 -1035 -20z"/>
<path d="M1476 3159 l-26 -20 0 -1318 0 -1318 23 -21 23 -22 816 0 c788 0 817
1 839 19 l24 19 0 1322 0 1322 -24 19 c-22 18 -51 19 -836 19 -807 0 -812 0
-839 -21z m1554 -1339 l0 -1210 -714 0 -713 0 -7 31 c-8 41 -8 2302 0 2352 l7
37 713 0 714 0 0 -1210z"/>
<path d="M3845 1175 l-25 -24 0 -321 0 -321 25 -24 24 -25 814 0 c809 0 814 0
841 21 l26 20 0 328 0 328 -23 21 -23 22 -818 0 -817 0 -24 -25z m1555 -345
l0 -220 -715 0 -715 0 0 220 0 220 715 0 715 0 0 -220z"/>
</g>
</svg>
